<svg width="613" height="278" viewBox="0 0 613 278" fill="none" xmlns="http://www.w3.org/2000/svg">
<path fill-rule="evenodd" clip-rule="evenodd" d="M382.795 18.3901C425.111 54.5143 448.943 113.135 440.456 164.891H457.027C460.088 139.767 457.701 116.393 449.867 94.7721C482.443 95.4304 517.252 89.3875 554.292 76.6423C580.049 69.1079 599.305 72.9751 612.059 88.244C591.687 92.4106 571.14 106.995 550.42 131.996C514.242 177.952 482.013 195.276 453.732 183.968C454.397 180.969 454.991 177.994 455.511 175.043H438.348C436.472 182.469 433.883 189.706 430.538 196.663C416.296 223.319 395.105 242.093 366.966 252.986C363.611 254.312 361.214 254.05 359.776 252.202C356.509 247.177 352.796 246.606 349.158 251.399L329.623 277.162L306.529 277.224L283.435 277.162L263.901 251.399C260.263 246.606 256.549 247.177 253.282 252.202C251.845 254.05 249.448 254.312 246.093 252.986C217.954 242.093 196.763 223.319 182.521 196.663C179.176 189.706 176.587 182.469 174.711 175.043H157.548C158.068 177.994 158.662 180.969 159.327 183.968C131.046 195.276 98.8165 177.952 62.6392 131.996C41.9183 106.995 21.3717 92.4106 1 88.244C13.754 72.9751 33.0097 69.1079 58.7671 76.6423C95.8072 89.3875 130.616 95.4304 163.192 94.7721C155.358 116.393 152.971 139.767 156.032 164.891H172.603C164.115 113.135 187.948 54.5143 230.264 18.3901L250.569 53.9234L260.359 46.43L242.351 10.1705C261.929 0.350795 280.34 -1.58251 297.585 4.36939L297.344 52.2295L306.529 52.1621L315.714 52.2295L315.474 4.36939C332.719 -1.58251 351.13 0.350795 370.708 10.1705L352.7 46.43L362.49 53.9234L382.795 18.3901Z" fill="#005CBB" stroke="#333333" stroke-width="0.680315" stroke-miterlimit="22.9256" stroke-linejoin="bevel"/>
<path fill-rule="evenodd" clip-rule="evenodd" d="M259.218 124.924C262.672 129.779 265.027 137.712 257.12 138.774C254.158 139.172 249.815 139.3 244.092 139.161C234.56 138.931 233.097 136.564 236.814 128.068C240.83 118.875 253.645 117.08 259.218 124.924Z" fill="white" stroke="#333333" stroke-width="0.680315" stroke-miterlimit="22.9256" stroke-linejoin="bevel"/>
<path fill-rule="evenodd" clip-rule="evenodd" d="M306.529 128.606C317.201 128.444 327.785 136.086 337.789 151.504C338.999 153.37 338.465 155.879 336.599 157.089C334.734 158.3 332.225 157.765 331.014 155.899C322.624 142.966 314.623 136.58 306.529 136.751C298.436 136.58 290.435 142.966 282.044 155.899C280.834 157.765 278.325 158.3 276.46 157.089C274.594 155.879 274.059 153.37 275.27 151.504C285.274 136.086 295.857 128.444 306.529 128.606Z" fill="white" stroke="#333333" stroke-width="0.680315" stroke-miterlimit="22.9256" stroke-linejoin="bevel"/>
<path fill-rule="evenodd" clip-rule="evenodd" d="M353.84 124.924C359.413 117.08 372.228 118.875 376.245 128.068C379.961 136.564 378.499 138.931 368.966 139.161C363.243 139.3 358.9 139.172 355.939 138.774C348.031 137.712 350.386 129.779 353.84 124.924Z" fill="white" stroke="#333333" stroke-width="0.680315" stroke-miterlimit="22.9256" stroke-linejoin="bevel"/>
<path fill-rule="evenodd" clip-rule="evenodd" d="M239.855 196.139C264.749 189.226 287.245 192.017 306.529 204.838C325.814 192.017 348.31 189.226 373.203 196.139C376.824 197.144 378.957 200.917 377.952 204.538C376.946 208.159 373.173 210.291 369.553 209.286C345.156 202.511 324.233 206.436 306.529 222.012C288.826 206.436 267.903 202.511 243.506 209.286C239.886 210.291 236.113 208.159 235.107 204.538C234.102 200.917 236.235 197.144 239.855 196.139Z" fill="white" stroke="#333333" stroke-width="0.680315" stroke-miterlimit="22.9256" stroke-linejoin="bevel"/>
</svg>
