<svg width="100%" height="100%" viewBox="0 0 351 160" fill="none" xmlns="http://www.w3.org/2000/svg">
<path fill-rule="evenodd" clip-rule="evenodd" d="M218.943 10.4328C243.181 31.1676 256.831 64.8151 251.97 94.5224H261.461C263.214 80.1013 261.847 66.6853 257.36 54.2751C276.019 54.653 295.956 51.1844 317.172 43.8688C331.925 39.5441 342.955 41.7639 350.26 50.5281C338.591 52.9196 326.823 61.2908 314.954 75.6414C294.233 102.019 275.773 111.963 259.574 105.472C259.955 103.751 260.295 102.044 260.593 100.349H250.762C249.688 104.612 248.205 108.766 246.289 112.759C238.131 128.059 225.994 138.836 209.876 145.088C207.955 145.849 206.582 145.699 205.758 144.638C203.887 141.754 201.76 141.426 199.676 144.177L188.487 158.964L175.26 159L162.032 158.964L150.843 144.177C148.759 141.426 146.632 141.754 144.761 144.638C143.938 145.699 142.565 145.849 140.643 145.088C124.526 138.836 112.388 128.059 104.231 112.759C102.315 108.766 100.832 104.612 99.7571 100.349H89.9266C90.2246 102.044 90.5646 103.751 90.9458 105.472C74.7471 111.963 56.2868 102.019 35.5653 75.6414C23.6968 61.2908 11.9282 52.9196 0.259766 50.5281C7.56495 41.7639 18.5942 39.5441 33.3474 43.8688C54.5631 51.1844 74.5006 54.653 93.1596 54.2751C88.6723 66.6853 87.3053 80.1013 89.0582 94.5224H98.5499C93.6883 64.8151 107.339 31.1676 131.577 10.4328L143.207 30.8284L148.815 26.5273L138.5 5.7148C149.713 0.078414 160.259 -1.03128 170.137 2.38504L169.999 29.8562L175.26 29.8175L180.521 29.8562L180.383 2.38504C190.26 -1.03128 200.806 0.078414 212.02 5.7148L201.705 26.5273L207.313 30.8284L218.943 10.4328Z" fill="#005CBB" stroke="#333333" stroke-width="0.680315" stroke-miterlimit="22.9256" stroke-linejoin="bevel"/>
<path fill-rule="evenodd" clip-rule="evenodd" d="M148.161 71.5816C150.139 74.3686 151.488 78.922 146.959 79.5318C145.263 79.7602 142.775 79.8332 139.497 79.7539C134.037 79.6215 133.2 78.2629 135.328 73.3867C137.629 68.1096 144.969 67.0798 148.161 71.5816Z" fill="white" stroke="#333333" stroke-width="0.680315" stroke-miterlimit="22.9256" stroke-linejoin="bevel"/>
<path fill-rule="evenodd" clip-rule="evenodd" d="M175.26 73.695C181.372 73.6025 187.434 77.9886 193.164 86.8386C193.858 87.9093 193.552 89.3494 192.483 90.0441C191.414 90.7392 189.977 90.4321 189.284 89.3614C184.478 81.9379 179.895 78.272 175.26 78.3705C170.624 78.272 166.041 81.9379 161.235 89.3614C160.542 90.4321 159.105 90.7392 158.036 90.0441C156.968 89.3494 156.662 87.9093 157.355 86.8386C163.085 77.9886 169.147 73.6025 175.26 73.695Z" fill="white" stroke="#333333" stroke-width="0.680315" stroke-miterlimit="22.9256" stroke-linejoin="bevel"/>
<path fill-rule="evenodd" clip-rule="evenodd" d="M202.358 71.5816C205.55 67.0798 212.89 68.1096 215.191 73.3867C217.32 78.2629 216.482 79.6215 211.022 79.7539C207.744 79.8332 205.256 79.7602 203.56 79.5318C199.031 78.922 200.38 74.3686 202.358 71.5816Z" fill="white" stroke="#333333" stroke-width="0.680315" stroke-miterlimit="22.9256" stroke-linejoin="bevel"/>
<path fill-rule="evenodd" clip-rule="evenodd" d="M137.071 112.458C151.329 108.49 164.214 110.092 175.26 117.452C186.306 110.092 199.191 108.49 213.449 112.458C215.523 113.035 216.745 115.201 216.169 117.279C215.593 119.357 213.432 120.582 211.358 120.005C197.384 116.116 185.4 118.369 175.26 127.309C165.12 118.369 153.136 116.116 139.162 120.005C137.088 120.582 134.927 119.357 134.351 117.279C133.775 115.201 134.997 113.035 137.071 112.458Z" fill="white" stroke="#333333" stroke-width="0.680315" stroke-miterlimit="22.9256" stroke-linejoin="bevel"/>
</svg>
