<svg width="100%" height="100%" viewBox="0 0 352 229" fill="none" xmlns="http://www.w3.org/2000/svg">
<path fill-rule="evenodd" clip-rule="evenodd" d="M275.444 1L347.165 73.1568C350.328 72.9413 351.246 74.4994 349.917 77.8312C349.917 77.8314 350.336 152.077 350.336 152.077C351.701 154.11 350.823 155.369 347.704 155.852C347.704 155.852 275.199 228 275.199 228L236.435 193.124C236.435 193.124 269.099 144.106 269.099 144.106L275.799 142.188L267.224 154.642L269.976 155.998L279.895 141.805C279.895 141.805 305.978 151.512 305.978 151.512L293.562 167.617L299.171 170.38C299.171 170.38 312.8 153.968 312.8 153.968C312.8 153.968 328.892 160.499 328.892 160.499L312.519 176.956L314.736 178.048C314.736 178.048 333.707 158.965 333.707 158.965L283.098 139.609C283.098 139.609 319.406 133.527 319.406 133.527C319.406 133.527 319.406 133.527 319.406 133.527C324.938 132.604 324.945 131.916 325.084 126.726L325.429 113.91L322.33 113.839L322.454 129.849C294.581 134.503 262.316 141.973 225.66 152.262C219.994 160.415 214.576 165.504 209.405 167.529C205.112 169.211 209.395 170.112 201.426 173.951C197.807 175.695 194.908 177.162 192.731 178.35C187.81 181.034 181.871 181.688 175.959 181.538C170.047 181.688 164.108 181.034 159.187 178.35C157.01 177.162 154.111 175.695 150.492 173.951C142.523 170.112 146.806 169.211 142.513 167.529C137.342 165.504 131.924 160.415 126.258 152.262C89.6015 141.973 57.3369 134.503 29.4639 129.849L29.5895 113.673L26.4828 113.682L26.8342 126.726C26.9731 131.916 26.9799 132.604 32.5124 133.527C32.5127 133.527 68.8203 139.609 68.8203 139.609L18.2105 158.965C18.2108 158.965 37.1825 178.048 37.1825 178.048L39.3992 176.956L23.0256 160.499C23.0259 160.499 39.1181 153.968 39.1181 153.968C39.1183 153.968 52.7474 170.38 52.7474 170.38L58.3557 167.617L45.9402 151.512C45.9405 151.512 72.023 141.805 72.023 141.805L81.9418 155.998L84.6944 154.642L76.1189 142.188L82.8193 144.106C82.8195 144.106 115.483 193.124 115.483 193.124L76.7188 228L4.21429 155.852C1.09489 155.369 0.217428 154.11 1.58164 152.077L2.0011 77.8312C0.672164 74.4994 1.58951 72.9413 4.75287 73.1568C4.75314 73.1568 76.4744 1 76.4744 1C76.4746 1 115.479 35.7562 115.479 35.7562C115.479 35.7565 82.4565 85.1337 82.4565 85.1337L76.4741 86.1525C76.4744 86.1525 91.6158 64.0858 91.6158 64.0858L89.2073 62.6158L71.8773 86.8817L45.7343 76.8742C45.7346 76.8742 67.286 49.2349 67.286 49.2349L62.8841 46.5478L39.6311 74.9565L23.1198 68.4846C23.1201 68.4846 51.6635 39.6987 51.6635 39.6987L49.4126 38.3248L17.9093 69.4951C17.9096 69.4951 68.1608 88.3113 68.1608 88.3113L32.9053 95.398C25.3745 96.9118 26.087 98.9222 26.2837 106.286L26.4508 112.493C27.8281 112.488 28.8775 112.485 29.5987 112.486L29.7032 99.0478H29.7034C60.857 93.6135 93.3029 86.0474 127.041 76.3491C130.867 69.4622 135.737 64.475 141.652 61.3884C144.553 59.8743 143.061 60.8451 144.711 58.5831C146.619 55.9658 151.318 53.4782 158.807 51.12C158.807 51.12 158.807 51.12 158.807 51.12C164.681 49.1351 170.398 48.0804 175.959 47.9562C175.959 47.9562 175.959 47.9562 175.959 47.9562C181.52 48.0804 187.237 49.1351 193.111 51.12C193.111 51.12 193.111 51.12 193.111 51.12C200.6 53.4782 205.299 55.9658 207.207 58.5831C208.857 60.8451 207.365 59.8743 210.266 61.3884C210.266 61.3884 210.266 61.3884 210.266 61.3884C216.181 64.475 221.051 69.4622 224.877 76.3491H224.877C258.615 86.0474 291.061 93.6135 322.215 99.0478L322.32 112.522L325.465 112.594L325.634 106.286C325.831 98.9222 326.543 96.9118 319.013 95.398L283.757 88.3113C283.757 88.3113 334.009 69.4951 334.009 69.4951L302.505 38.3248L300.254 39.6987C300.255 39.6987 328.798 68.4846 328.798 68.4846L312.287 74.9565L289.034 46.5478L284.632 49.2346C284.632 49.2346 306.184 76.8742 306.184 76.8742L280.041 86.8817L262.711 62.6158L260.302 64.0858C260.302 64.0858 275.444 86.1525 275.444 86.1525L269.461 85.1337L236.439 35.7562C236.439 35.7562 275.444 1 275.444 1Z" fill="#005CBB" stroke="#333333" stroke-width="0.680315" stroke-miterlimit="22.9256" stroke-linejoin="bevel"/>
<path fill-rule="evenodd" clip-rule="evenodd" d="M177.363 75.7222C185.943 76.2201 193.748 79.7407 199.81 85.2777L186.99 98.4317C184.236 96.2387 180.899 94.7985 177.263 94.4082L177.363 75.7222Z" fill="white" stroke="#333333" stroke-width="0.680315" stroke-miterlimit="22.9256" stroke-linejoin="bevel"/>
<path fill-rule="evenodd" clip-rule="evenodd" d="M275.382 11.3978L300.202 35.9552L297.978 37.3127L275.795 14.9416L268.437 21.2937L287.022 43.9999L282.685 46.6473L265.205 24.23L246.959 40.4694L260.878 59.9589L258.52 61.3982L243.618 39.6816L275.382 11.3978Z" fill="white" stroke="#333333" stroke-width="0.680315" stroke-miterlimit="22.9256" stroke-linejoin="bevel"/>
<path fill-rule="evenodd" clip-rule="evenodd" d="M203.07 88.6461C208.522 95.015 211.984 103.269 212.439 112.351L194.488 112.462C194.09 108.141 192.377 104.219 189.771 101.136L203.07 88.6461Z" fill="white" stroke="#333333" stroke-width="0.680315" stroke-miterlimit="22.9256" stroke-linejoin="bevel"/>
<path fill-rule="evenodd" clip-rule="evenodd" d="M192.473 114.133L187.387 126.418L175.959 131.563L164.53 126.418L159.445 114.133L164.769 101.908C172.227 98.3923 175.956 96.6344 175.959 96.6357C175.962 96.6344 179.691 98.3923 187.149 101.908L192.473 114.133Z" fill="white" stroke="#333333" stroke-width="0.680315" stroke-miterlimit="22.9256" stroke-linejoin="bevel"/>
<path fill-rule="evenodd" clip-rule="evenodd" d="M194.53 115.818L212.468 115.765C212.157 125.13 208.651 133.651 203.05 140.184L190.032 127.355C192.595 124.194 194.237 120.199 194.53 115.818Z" fill="white" stroke="#333333" stroke-width="0.680315" stroke-miterlimit="22.9256" stroke-linejoin="bevel"/>
<path fill-rule="evenodd" clip-rule="evenodd" d="M187.339 130.09L200.058 143.3C193.999 148.935 186.155 152.536 177.52 153.075L176.996 134.425C180.892 134.063 184.455 132.498 187.339 130.09Z" fill="white" stroke="#333333" stroke-width="0.680315" stroke-miterlimit="22.9256" stroke-linejoin="bevel"/>
<path fill-rule="evenodd" clip-rule="evenodd" d="M174.921 134.425L174.398 153.075C165.762 152.536 157.919 148.935 151.86 143.3L164.578 130.09C167.463 132.498 171.026 134.063 174.921 134.425Z" fill="white" stroke="#333333" stroke-width="0.680315" stroke-miterlimit="22.9256" stroke-linejoin="bevel"/>
<path fill-rule="evenodd" clip-rule="evenodd" d="M174.555 75.7222L174.655 94.4082C171.019 94.7985 167.682 96.2387 164.928 98.4317L152.108 85.2777C158.17 79.7407 165.975 76.2201 174.555 75.7222Z" fill="white" stroke="#333333" stroke-width="0.680315" stroke-miterlimit="22.9256" stroke-linejoin="bevel"/>
<path fill-rule="evenodd" clip-rule="evenodd" d="M162.147 101.136C159.541 104.219 157.828 108.141 157.43 112.462L139.479 112.351C139.934 103.269 143.396 95.015 148.848 88.6461L162.147 101.136Z" fill="white" stroke="#333333" stroke-width="0.680315" stroke-miterlimit="22.9256" stroke-linejoin="bevel"/>
<path fill-rule="evenodd" clip-rule="evenodd" d="M139.45 115.765L157.388 115.818C157.681 120.199 159.323 124.194 161.885 127.355L148.868 140.184C143.266 133.651 139.761 125.13 139.45 115.765Z" fill="white" stroke="#333333" stroke-width="0.680315" stroke-miterlimit="22.9256" stroke-linejoin="bevel"/>
<path fill-rule="evenodd" clip-rule="evenodd" d="M39.7314 180.522L41.9495 179.429L76.089 213.742L83.2082 206.971L54.9985 173.001L60.4898 170.295L86.5002 204.036L104.686 188.456L83.9272 158.749L86.6581 157.404L108.304 188.838L76.5972 217.602L39.7314 180.522Z" fill="white" stroke="#333333" stroke-width="0.680315" stroke-miterlimit="22.9256" stroke-linejoin="bevel"/>
<path fill-rule="evenodd" clip-rule="evenodd" d="M76.5356 11.3978L108.3 39.6816L93.398 61.3982L91.0403 59.9589L104.959 40.4694L86.7127 24.23L69.2329 46.6473L64.8956 43.9999L83.4809 21.2937L76.1226 14.9416L53.9398 37.3127L51.7161 35.9554L76.5356 11.3978Z" fill="white" stroke="#333333" stroke-width="0.680315" stroke-miterlimit="22.9256" stroke-linejoin="bevel"/>
<path fill-rule="evenodd" clip-rule="evenodd" d="M309.968 179.429L312.186 180.522L275.321 217.602L243.614 188.838L265.26 157.404L267.99 158.749L247.231 188.456L265.418 204.036L291.428 170.295L296.919 173.001L268.71 206.971L275.829 213.742L309.968 179.429Z" fill="white" stroke="#333333" stroke-width="0.680315" stroke-miterlimit="22.9256" stroke-linejoin="bevel"/>
</svg>
