<svg width="489" height="317" viewBox="0 0 489 317" fill="none" xmlns="http://www.w3.org/2000/svg">
<path fill-rule="evenodd" clip-rule="evenodd" d="M383.357 1L483.265 101.345C487.672 101.045 488.949 103.212 487.098 107.845C487.098 107.846 487.683 211.095 487.683 211.095C489.583 213.923 488.361 215.673 484.015 216.345C484.015 216.346 383.016 316.678 383.016 316.678L329.018 268.177C329.018 268.177 374.519 200.011 374.519 200.011L383.852 197.344L371.907 214.663L375.741 216.548L389.558 196.81C389.558 196.81 425.891 210.31 425.891 210.31L408.596 232.707L416.409 236.549C416.409 236.549 435.394 213.725 435.394 213.725C435.395 213.725 457.811 222.808 457.811 222.808L435.003 245.693L438.091 247.212C438.091 247.212 464.519 220.675 464.519 220.675L394.019 193.756C394.019 193.756 444.596 185.299 444.596 185.299C444.596 185.299 444.596 185.299 444.596 185.299C452.303 184.015 452.312 183.059 452.506 175.842L452.987 158.018L448.669 157.92L448.843 180.184C410.015 186.656 365.071 197.045 314.009 211.352C306.116 222.69 298.568 229.768 291.366 232.584C285.385 234.923 291.351 236.176 280.251 241.514C275.209 243.94 271.172 245.98 268.139 247.632C261.284 251.364 253.011 252.275 244.775 252.065C236.539 252.275 228.266 251.364 221.411 247.632C218.378 245.98 214.341 243.94 209.299 241.514C198.199 236.176 204.165 234.923 198.184 232.584C190.982 229.768 183.434 222.69 175.541 211.352C124.479 197.045 79.5344 186.656 40.7073 180.184L40.8823 157.689L36.5547 157.702L37.0442 175.842C37.2377 183.059 37.2471 184.015 44.954 185.299C44.9543 185.299 95.5309 193.756 95.5309 193.756L25.0313 220.675C25.0317 220.675 51.4593 247.212 51.4593 247.212L54.5472 245.693L31.7388 222.808C31.7392 222.808 54.1556 213.725 54.1556 213.725C54.156 213.725 73.1413 236.549 73.1413 236.549L80.9536 232.707L63.6589 210.31C63.6592 210.31 99.9922 196.81 99.9922 196.81L113.809 216.548L117.643 214.663L105.698 197.344L115.031 200.011C115.032 200.011 160.532 268.177 160.532 268.177L106.533 316.678L5.53464 216.345C1.18931 215.673 -0.0329878 213.923 1.86736 211.095L2.45167 107.845C0.600459 103.212 1.87832 101.045 6.28488 101.345C6.28525 101.345 106.193 1 106.193 1C106.193 1 160.526 49.3337 160.526 49.3337C160.526 49.3341 114.526 118.001 114.526 118.001L106.193 119.418C106.193 119.418 127.285 88.7304 127.285 88.7304L123.93 86.6861L99.7892 120.432L63.372 106.515C63.3724 106.515 93.3935 68.0779 93.3935 68.0779L87.2616 64.3411L54.8703 103.848L31.87 94.8476C31.8704 94.8476 71.6314 54.8163 71.6314 54.8163L68.4959 52.9058L24.6118 96.2528C24.6122 96.2528 94.6121 122.42 94.6121 122.42L45.5012 132.275C35.0108 134.38 36.0033 137.176 36.2773 147.416L36.5101 156.048C38.4286 156.04 39.8905 156.037 40.8951 156.038L41.0406 137.35H41.041C84.4379 129.793 129.635 119.271 176.633 105.784C181.962 96.2071 188.746 89.2716 196.985 84.9792C201.027 82.8736 198.948 84.2237 201.246 81.078C203.904 77.4383 210.45 73.9789 220.882 70.6994C220.882 70.6994 220.882 70.6994 220.882 70.6994C229.064 67.9392 237.029 66.4724 244.775 66.2997C244.775 66.2997 244.775 66.2997 244.775 66.2997C252.521 66.4724 260.486 67.9392 268.668 70.6994C268.668 70.6994 268.668 70.6994 268.668 70.6994C279.1 73.9789 285.646 77.4383 288.304 81.078C290.602 84.2237 288.523 82.8736 292.565 84.9792C292.565 84.9792 292.565 84.9792 292.565 84.9792C300.804 89.2716 307.588 96.2071 312.917 105.784H312.918C359.915 119.271 405.112 129.793 448.509 137.35L448.655 156.088L453.036 156.188L453.273 147.416C453.547 137.176 454.539 134.38 444.049 132.275L394.938 122.42C394.938 122.42 464.938 96.2528 464.938 96.2528L421.054 52.9058L417.919 54.8163C417.919 54.8163 457.68 94.8476 457.68 94.8476L434.68 103.848L402.288 64.3411L396.156 68.0776C396.157 68.0776 426.178 106.515 426.178 106.515L389.761 120.432L365.62 86.6861L362.265 88.7304C362.265 88.7304 383.357 119.418 383.357 119.418L375.024 118.001L329.024 49.3337C329.024 49.3337 383.357 1 383.357 1Z" fill="#005CBB" stroke="#333333" stroke-width="0.680315" stroke-miterlimit="22.9256" stroke-linejoin="bevel"/>
<path fill-rule="evenodd" clip-rule="evenodd" d="M246.731 104.912C258.683 105.605 269.555 110.501 277.999 118.201L260.141 136.493C256.305 133.444 251.656 131.441 246.591 130.898L246.731 104.912Z" fill="white" stroke="#333333" stroke-width="0.680315" stroke-miterlimit="22.9256" stroke-linejoin="bevel"/>
<path fill-rule="evenodd" clip-rule="evenodd" d="M383.272 15.4597L417.845 49.6104L414.747 51.4983L383.847 20.3879L373.597 29.2214L399.486 60.7978L393.444 64.4795L369.095 33.3048L343.678 55.8882L363.067 82.9912L359.782 84.9928L339.024 54.7925L383.272 15.4597Z" fill="white" stroke="#333333" stroke-width="0.680315" stroke-miterlimit="22.9256" stroke-linejoin="bevel"/>
<path fill-rule="evenodd" clip-rule="evenodd" d="M282.541 122.885C290.135 131.742 294.957 143.221 295.592 155.851L270.585 156.005C270.031 149.996 267.645 144.542 264.015 140.254L282.541 122.885Z" fill="white" stroke="#333333" stroke-width="0.680315" stroke-miterlimit="22.9256" stroke-linejoin="bevel"/>
<path fill-rule="evenodd" clip-rule="evenodd" d="M267.779 158.329L260.695 175.412L244.775 182.568L228.855 175.412L221.771 158.329L229.187 141.327C239.576 136.439 244.771 133.994 244.775 133.996C244.779 133.994 249.974 136.439 260.363 141.327L267.779 158.329Z" fill="white" stroke="#333333" stroke-width="0.680315" stroke-miterlimit="22.9256" stroke-linejoin="bevel"/>
<path fill-rule="evenodd" clip-rule="evenodd" d="M270.644 160.671L295.632 160.597C295.199 173.621 290.316 185.471 282.513 194.556L264.379 176.716C267.948 172.32 270.237 166.764 270.644 160.671Z" fill="white" stroke="#333333" stroke-width="0.680315" stroke-miterlimit="22.9256" stroke-linejoin="bevel"/>
<path fill-rule="evenodd" clip-rule="evenodd" d="M260.627 180.52L278.345 198.89C269.905 206.726 258.979 211.734 246.95 212.483L246.22 186.548C251.646 186.045 256.61 183.868 260.627 180.52Z" fill="white" stroke="#333333" stroke-width="0.680315" stroke-miterlimit="22.9256" stroke-linejoin="bevel"/>
<path fill-rule="evenodd" clip-rule="evenodd" d="M243.33 186.548L242.6 212.483C230.571 211.734 219.645 206.726 211.205 198.89L228.922 180.519C232.94 183.868 237.903 186.045 243.33 186.548Z" fill="white" stroke="#333333" stroke-width="0.680315" stroke-miterlimit="22.9256" stroke-linejoin="bevel"/>
<path fill-rule="evenodd" clip-rule="evenodd" d="M242.819 104.912L242.959 130.898C237.893 131.441 233.245 133.444 229.409 136.493L211.551 118.201C219.994 110.501 230.867 105.605 242.819 104.912Z" fill="white" stroke="#333333" stroke-width="0.680315" stroke-miterlimit="22.9256" stroke-linejoin="bevel"/>
<path fill-rule="evenodd" clip-rule="evenodd" d="M225.535 140.254C221.905 144.542 219.519 149.996 218.965 156.005L193.958 155.851C194.593 143.221 199.415 131.742 207.009 122.885L225.535 140.254Z" fill="white" stroke="#333333" stroke-width="0.680315" stroke-miterlimit="22.9256" stroke-linejoin="bevel"/>
<path fill-rule="evenodd" clip-rule="evenodd" d="M193.918 160.597L218.906 160.671C219.313 166.764 221.602 172.32 225.171 176.716L207.037 194.556C199.234 185.471 194.351 173.621 193.918 160.597Z" fill="white" stroke="#333333" stroke-width="0.680315" stroke-miterlimit="22.9256" stroke-linejoin="bevel"/>
<path fill-rule="evenodd" clip-rule="evenodd" d="M55.0103 250.652L58.1 249.133L105.656 296.85L115.573 287.434L76.2773 240.193L83.9267 236.431L120.159 283.352L145.493 261.685L116.575 220.374L120.379 218.503L150.531 262.218L106.364 302.218L55.0103 250.652Z" fill="white" stroke="#333333" stroke-width="0.680315" stroke-miterlimit="22.9256" stroke-linejoin="bevel"/>
<path fill-rule="evenodd" clip-rule="evenodd" d="M106.278 15.4597L150.526 54.7925L129.768 84.9928L126.483 82.9912L145.872 55.8882L120.455 33.3048L96.1056 64.4795L90.0636 60.7978L115.953 29.2214L105.703 20.3879L74.8023 51.4983L71.7046 49.6108L106.278 15.4597Z" fill="white" stroke="#333333" stroke-width="0.680315" stroke-miterlimit="22.9256" stroke-linejoin="bevel"/>
<path fill-rule="evenodd" clip-rule="evenodd" d="M431.45 249.133L434.54 250.652L383.186 302.218L339.019 262.218L369.171 218.503L372.975 220.374L344.057 261.685L369.391 283.352L405.623 236.431L413.273 240.193L373.977 287.434L383.894 296.85L431.45 249.133Z" fill="white" stroke="#333333" stroke-width="0.680315" stroke-miterlimit="22.9256" stroke-linejoin="bevel"/>
</svg>
