<svg width="352" height="349" viewBox="0 0 352 349" fill="none" xmlns="http://www.w3.org/2000/svg">
<path fill-rule="evenodd" clip-rule="evenodd" d="M176.297 94.2215C159.792 94.2897 118.498 94.4616 52.4144 94.7363C55.215 47.9038 76.6405 16.4066 116.691 0.244659C68.0643 8.12005 44.6247 46.7592 46.3713 116.162C117.132 116.446 160.441 116.62 176.297 116.683" fill="#005CBB"/>
<path d="M176.297 94.2215C159.792 94.2897 118.498 94.4616 52.4144 94.7363C55.215 47.9038 76.6405 16.4066 116.691 0.244659C68.0643 8.12005 44.6247 46.7592 46.3713 116.162C117.132 116.446 160.441 116.62 176.297 116.683" stroke="black" stroke-width="0.340157" stroke-miterlimit="22.9256" stroke-linejoin="bevel"/>
<path fill-rule="evenodd" clip-rule="evenodd" d="M148.173 133.938C127.922 144.087 112.357 151.509 101.481 156.205C91.0819 160.695 90.7381 163.35 83.1068 155.586C72.3511 144.645 68.0721 133.289 70.27 121.519C128.87 121.427 158.17 121.382 158.17 121.382C159.264 128.753 153.597 131.219 148.173 133.938Z" fill="#005CBB" stroke="black" stroke-width="0.340157" stroke-miterlimit="22.9256" stroke-linejoin="bevel"/>
<path fill-rule="evenodd" clip-rule="evenodd" d="M64.7776 149.607C52.5188 168.903 55.7694 188.772 74.5288 209.214C75.6267 197.277 77.7785 188.167 80.984 181.883C69.7885 175.413 64.3864 164.654 64.7776 149.607Z" fill="#005CBB" stroke="black" stroke-width="0.340157" stroke-miterlimit="22.9256" stroke-linejoin="bevel"/>
<path fill-rule="evenodd" clip-rule="evenodd" d="M39.1634 175.36C47.4011 157.713 49.2779 140.819 44.7945 124.68C41.4816 129.366 39.3528 134.906 38.4075 141.298C38.4075 141.298 36.0268 141.298 31.2656 141.298C30.2353 144.089 29.7545 147.271 29.8236 150.844C34.8137 152.812 37.3087 153.796 37.3087 153.796C36.9655 161.071 37.5837 168.259 39.1634 175.36Z" fill="#005CBB" stroke="black" stroke-width="0.340157" stroke-miterlimit="22.9256" stroke-linejoin="bevel"/>
<path fill-rule="evenodd" clip-rule="evenodd" d="M4.48629 210.249C10.1379 200 20.438 191.232 35.3861 183.944C42.0702 183.99 45.4121 184.013 45.4121 184.013C46.0029 188.069 42.4552 191.251 34.7682 193.559C21.709 200.366 13.5813 207.887 10.3858 216.12C6.12733 227.094 13.7582 241.573 21.9267 248.84C25.4922 251.728 28.926 254.108 32.2277 255.981C42.1864 262.626 47.8623 272.689 49.2545 286.169C49.9612 293.013 48.3999 297.86 48.5783 304.193C48.8315 313.152 51.7598 321.346 57.3622 328.774C48.7752 321.425 44.1059 313.459 43.3537 304.877C44.5428 284.979 40.8347 271.519 32.2289 264.498C27.2043 259.979 20.4289 254.44 11.9026 247.88C0.404398 236.215 -2.06761 223.671 4.48629 210.249Z" fill="#005CBB" stroke="black" stroke-width="0.340157" stroke-miterlimit="22.9256" stroke-linejoin="bevel"/>
<path fill-rule="evenodd" clip-rule="evenodd" d="M133.314 347.18C133.314 347.18 130.247 345.852 124.112 343.197C106.434 343.738 94.9206 339.769 89.572 331.291C83.11 321.05 85.1301 310.481 97.7423 307.076C95.9368 324.103 99.4619 333.076 108.318 333.995C117.888 335.641 125.487 329.094 131.117 314.355C119.683 303.53 108.1 299.684 96.3688 302.818C84.9426 305.627 79.7877 312.671 80.9033 323.95C83.2349 347.51 115.471 349.717 133.314 347.18Z" fill="#005CBB" stroke="black" stroke-width="0.340157" stroke-miterlimit="22.9256" stroke-linejoin="bevel"/>
<path fill-rule="evenodd" clip-rule="evenodd" d="M151.718 305.702C151.81 325.709 151.856 335.713 151.856 335.713C147.491 329.832 145.431 321.363 145.675 310.303C149.704 307.236 151.718 305.702 151.718 305.702Z" fill="#005CBB" stroke="black" stroke-width="0.340157" stroke-miterlimit="22.9256" stroke-linejoin="bevel"/>
<path fill-rule="evenodd" clip-rule="evenodd" d="M165.935 280.432C166.209 323.008 166.346 344.297 166.346 344.297C162.714 343.162 159.784 341.972 157.556 340.726C157.603 305.612 157.626 288.055 157.626 288.055C159.948 285.142 162.718 282.601 165.935 280.432Z" fill="#005CBB" stroke="black" stroke-width="0.340157" stroke-miterlimit="22.9256" stroke-linejoin="bevel"/>
<path fill-rule="evenodd" clip-rule="evenodd" d="M176.297 278.373C175.074 278.373 173.567 278.373 171.773 278.373C171.819 323.101 171.843 345.465 171.843 345.465C173.616 345.48 175.101 345.492 176.297 345.502" fill="#005CBB"/>
<path d="M176.297 278.373C175.074 278.373 173.567 278.373 171.773 278.373C171.819 323.101 171.843 345.465 171.843 345.465C173.616 345.48 175.101 345.492 176.297 345.502" stroke="black" stroke-width="0.340157" stroke-miterlimit="22.9256" stroke-linejoin="bevel"/>
<path fill-rule="evenodd" clip-rule="evenodd" d="M176.297 217.771C166.293 218.637 157.457 223.193 147.903 228.478C132.4 237.055 119.746 239.163 109.939 234.803C120.416 226.585 131.449 218.161 143.039 209.532C155.526 200.243 166.612 194.95 176.297 193.653" fill="#005CBB"/>
<path d="M176.297 217.771C166.293 218.637 157.457 223.193 147.903 228.478C132.4 237.055 119.746 239.163 109.939 234.803C120.416 226.585 131.449 218.161 143.039 209.532C155.526 200.243 166.612 194.95 176.297 193.653" stroke="black" stroke-width="0.340157" stroke-miterlimit="22.9256" stroke-linejoin="bevel"/>
<path fill-rule="evenodd" clip-rule="evenodd" d="M34.7323 220.194C32.8963 219.538 31.0008 218.96 29.0458 218.459C39.026 210.493 44.0161 206.51 44.0161 206.51C45.721 206.975 47.3817 207.488 48.9969 208.051" fill="#005CBB"/>
<path d="M34.7323 220.194C32.8963 219.538 31.0008 218.96 29.0458 218.459C39.026 210.493 44.0161 206.51 44.0161 206.51C45.721 206.975 47.3817 207.488 48.9969 208.051" stroke="black" stroke-width="0.340157" stroke-miterlimit="22.9256" stroke-linejoin="bevel"/>
<path fill-rule="evenodd" clip-rule="evenodd" d="M52.2248 209.267C53.9711 209.976 55.6617 210.747 57.2946 211.581Z" fill="#005CBB"/>
<path d="M52.2248 209.267C53.9711 209.976 55.6617 210.747 57.2946 211.581" stroke="black" stroke-width="0.340157" stroke-miterlimit="22.9256" stroke-linejoin="bevel"/>
<path fill-rule="evenodd" clip-rule="evenodd" d="M59.7962 212.933C61.5055 213.909 63.1481 214.959 64.7237 216.083Z" fill="#005CBB"/>
<path d="M59.7962 212.933C61.5055 213.909 63.1481 214.959 64.7237 216.083" stroke="black" stroke-width="0.340157" stroke-miterlimit="22.9256" stroke-linejoin="bevel"/>
<path fill-rule="evenodd" clip-rule="evenodd" d="M67.4735 218.173C68.9763 219.39 70.4118 220.682 71.78 222.048Z" fill="#005CBB"/>
<path d="M67.4735 218.173C68.9763 219.39 70.4118 220.682 71.78 222.048" stroke="black" stroke-width="0.340157" stroke-miterlimit="22.9256" stroke-linejoin="bevel"/>
<path fill-rule="evenodd" clip-rule="evenodd" d="M74.2657 224.695C75.315 225.887 76.3197 227.129 77.2793 228.42Z" fill="#005CBB"/>
<path d="M74.2657 224.695C75.315 225.887 76.3197 227.129 77.2793 228.42" stroke="black" stroke-width="0.340157" stroke-miterlimit="22.9256" stroke-linejoin="bevel"/>
<path fill-rule="evenodd" clip-rule="evenodd" d="M78.9991 230.859C80.0434 232.42 81.0285 234.048 81.9532 235.741Z" fill="#005CBB"/>
<path d="M78.9991 230.859C80.0434 232.42 81.0285 234.048 81.9532 235.741" stroke="black" stroke-width="0.340157" stroke-miterlimit="22.9256" stroke-linejoin="bevel"/>
<path fill-rule="evenodd" clip-rule="evenodd" d="M83.2243 238.186C83.9562 239.666 84.6458 241.193 85.2927 242.766Z" fill="#005CBB"/>
<path d="M83.2243 238.186C83.9562 239.666 84.6458 241.193 85.2927 242.766" stroke="black" stroke-width="0.340157" stroke-miterlimit="22.9256" stroke-linejoin="bevel"/>
<path fill-rule="evenodd" clip-rule="evenodd" d="M86.3173 245.394C86.9078 246.991 87.4572 248.634 87.9658 250.323C76.7953 257.282 71.21 260.761 71.21 260.761C70.6864 259.132 70.1283 257.547 69.5369 256.007" fill="#005CBB"/>
<path d="M86.3173 245.394C86.9078 246.991 87.4572 248.634 87.9658 250.323C76.7953 257.282 71.21 260.761 71.21 260.761C70.6864 259.132 70.1283 257.547 69.5369 256.007" stroke="black" stroke-width="0.340157" stroke-miterlimit="22.9256" stroke-linejoin="bevel"/>
<path fill-rule="evenodd" clip-rule="evenodd" d="M68.482 253.393C67.8672 251.941 67.2194 250.531 66.5401 249.164Z" fill="#005CBB"/>
<path d="M68.482 253.393C67.8672 251.941 67.2194 250.531 66.5401 249.164" stroke="black" stroke-width="0.340157" stroke-miterlimit="22.9256" stroke-linejoin="bevel"/>
<path fill-rule="evenodd" clip-rule="evenodd" d="M65.2145 246.624C64.278 244.916 63.2866 243.278 62.2408 241.713Z" fill="#005CBB"/>
<path d="M65.2145 246.624C64.278 244.916 63.2866 243.278 62.2408 241.713" stroke="black" stroke-width="0.340157" stroke-miterlimit="22.9256" stroke-linejoin="bevel"/>
<path fill-rule="evenodd" clip-rule="evenodd" d="M60.5739 239.34C59.6866 238.14 58.7638 236.985 57.8057 235.878Z" fill="#005CBB"/>
<path d="M60.5739 239.34C59.6866 238.14 58.7638 236.985 57.8057 235.878" stroke="black" stroke-width="0.340157" stroke-miterlimit="22.9256" stroke-linejoin="bevel"/>
<path fill-rule="evenodd" clip-rule="evenodd" d="M55.6417 233.516C54.3943 232.232 53.0924 231.018 51.7367 229.876Z" fill="#005CBB"/>
<path d="M55.6417 233.516C54.3943 232.232 53.0924 231.018 51.7367 229.876" stroke="black" stroke-width="0.340157" stroke-miterlimit="22.9256" stroke-linejoin="bevel"/>
<path fill-rule="evenodd" clip-rule="evenodd" d="M49.7419 228.275C48.3945 227.246 46.997 226.282 45.5507 225.384Z" fill="#005CBB"/>
<path d="M49.7419 228.275C48.3945 227.246 46.997 226.282 45.5507 225.384" stroke="black" stroke-width="0.340157" stroke-miterlimit="22.9256" stroke-linejoin="bevel"/>
<path fill-rule="evenodd" clip-rule="evenodd" d="M42.827 223.8C41.3239 222.983 39.7713 222.231 38.1695 221.543Z" fill="#005CBB"/>
<path d="M42.827 223.8C41.3239 222.983 39.7713 222.231 38.1695 221.543" stroke="black" stroke-width="0.340157" stroke-miterlimit="22.9256" stroke-linejoin="bevel"/>
<path fill-rule="evenodd" clip-rule="evenodd" d="M69.5369 256.007C78.6705 250.23 84.2645 246.692 86.3173 245.394Z" fill="#005CBB"/>
<path d="M69.5369 256.007C78.6705 250.23 84.2645 246.692 86.3173 245.394" stroke="black" stroke-width="0.340157" stroke-miterlimit="22.9256" stroke-linejoin="bevel"/>
<path fill-rule="evenodd" clip-rule="evenodd" d="M68.482 253.393C77.3207 247.806 82.9244 244.263 85.2923 242.766Z" fill="#005CBB"/>
<path d="M68.482 253.393C77.3207 247.806 82.9244 244.263 85.2923 242.766" stroke="black" stroke-width="0.340157" stroke-miterlimit="22.9256" stroke-linejoin="bevel"/>
<path fill-rule="evenodd" clip-rule="evenodd" d="M66.5401 249.164C75.7435 243.108 81.3051 239.449 83.2243 238.186Z" fill="#005CBB"/>
<path d="M66.5401 249.164C75.7435 243.108 81.3051 239.449 83.2243 238.186" stroke="black" stroke-width="0.340157" stroke-miterlimit="22.9256" stroke-linejoin="bevel"/>
<path fill-rule="evenodd" clip-rule="evenodd" d="M62.2408 241.713C70.7824 236.18 76.3689 232.562 78.9991 230.859Z" fill="#005CBB"/>
<path d="M62.2408 241.713C70.7824 236.18 76.3689 232.562 78.9991 230.859" stroke="black" stroke-width="0.340157" stroke-miterlimit="22.9256" stroke-linejoin="bevel"/>
<path fill-rule="evenodd" clip-rule="evenodd" d="M65.2145 246.624C73.858 241.004 79.4376 237.377 81.9532 235.741Z" fill="#005CBB"/>
<path d="M65.2145 246.624C73.858 241.004 79.4376 237.377 81.9532 235.741" stroke="black" stroke-width="0.340157" stroke-miterlimit="22.9256" stroke-linejoin="bevel"/>
<path fill-rule="evenodd" clip-rule="evenodd" d="M57.8057 235.878C66.8453 229.736 72.3322 226.008 74.2657 224.695Z" fill="#005CBB"/>
<path d="M57.8057 235.878C66.8453 229.736 72.3322 226.008 74.2657 224.695" stroke="black" stroke-width="0.340157" stroke-miterlimit="22.9256" stroke-linejoin="bevel"/>
<path fill-rule="evenodd" clip-rule="evenodd" d="M60.5739 239.34C69.0161 233.822 74.5842 230.181 77.2792 228.42Z" fill="#005CBB"/>
<path d="M60.5739 239.34C69.0161 233.822 74.5842 230.181 77.2792 228.42" stroke="black" stroke-width="0.340157" stroke-miterlimit="22.9256" stroke-linejoin="bevel"/>
<path fill-rule="evenodd" clip-rule="evenodd" d="M51.7367 229.876C59.4698 224.126 64.7159 220.225 67.4738 218.174Z" fill="#005CBB"/>
<path d="M51.7367 229.876C59.4698 224.126 64.7159 220.225 67.4738 218.174" stroke="black" stroke-width="0.340157" stroke-miterlimit="22.9256" stroke-linejoin="bevel"/>
<path fill-rule="evenodd" clip-rule="evenodd" d="M55.6417 233.516C63.8301 227.698 69.2095 223.875 71.78 222.048Z" fill="#005CBB"/>
<path d="M55.6417 233.516C63.8301 227.698 69.2095 223.875 71.78 222.048" stroke="black" stroke-width="0.340157" stroke-miterlimit="22.9256" stroke-linejoin="bevel"/>
<path fill-rule="evenodd" clip-rule="evenodd" d="M45.5507 225.384C52.383 219.412 57.1314 215.261 59.7962 212.933Z" fill="#005CBB"/>
<path d="M45.5507 225.384C52.383 219.412 57.1314 215.261 59.7962 212.933" stroke="black" stroke-width="0.340157" stroke-miterlimit="22.9256" stroke-linejoin="bevel"/>
<path fill-rule="evenodd" clip-rule="evenodd" d="M49.7419 228.275C57.6385 221.849 62.6329 217.784 64.7237 216.083Z" fill="#005CBB"/>
<path d="M49.7419 228.275C57.6385 221.849 62.6329 217.784 64.7237 216.083" stroke="black" stroke-width="0.340157" stroke-miterlimit="22.9256" stroke-linejoin="bevel"/>
<path fill-rule="evenodd" clip-rule="evenodd" d="M38.1695 221.543C45.4466 215.188 50.1318 211.096 52.2247 209.267Z" fill="#005CBB"/>
<path d="M38.1695 221.543C45.4466 215.188 50.1318 211.096 52.2247 209.267" stroke="black" stroke-width="0.340157" stroke-miterlimit="22.9256" stroke-linejoin="bevel"/>
<path fill-rule="evenodd" clip-rule="evenodd" d="M42.827 223.8C50.6759 217.171 55.4988 213.098 57.2946 211.581Z" fill="#005CBB"/>
<path d="M42.827 223.8C50.6759 217.171 55.4988 213.098 57.2946 211.581" stroke="black" stroke-width="0.340157" stroke-miterlimit="22.9256" stroke-linejoin="bevel"/>
<path fill-rule="evenodd" clip-rule="evenodd" d="M34.7324 220.194C42.0503 213.965 46.8053 209.917 48.9967 208.051Z" fill="#005CBB"/>
<path d="M34.7324 220.194C42.0503 213.965 46.8053 209.917 48.9967 208.051" stroke="black" stroke-width="0.340157" stroke-miterlimit="22.9256" stroke-linejoin="bevel"/>
<path fill-rule="evenodd" clip-rule="evenodd" d="M176.297 94.2215C192.801 94.2897 234.095 94.4616 300.179 94.7363C297.378 47.9038 275.953 16.4066 235.902 0.244659C284.529 8.12005 307.969 46.7592 306.222 116.162C235.461 116.446 192.152 116.62 176.297 116.683" fill="#005CBB"/>
<path d="M176.297 94.2215C192.801 94.2897 234.095 94.4616 300.179 94.7363C297.378 47.9038 275.953 16.4066 235.902 0.244659C284.529 8.12005 307.969 46.7592 306.222 116.162C235.461 116.446 192.152 116.62 176.297 116.683" stroke="black" stroke-width="0.340157" stroke-miterlimit="22.9256" stroke-linejoin="bevel"/>
<path fill-rule="evenodd" clip-rule="evenodd" d="M204.42 133.938C224.671 144.087 240.236 151.509 251.113 156.205C261.511 160.695 261.855 163.35 269.486 155.586C280.242 144.645 284.521 133.289 282.323 121.519C223.723 121.427 194.423 121.382 194.423 121.382C193.329 128.753 198.996 131.219 204.42 133.938Z" fill="#005CBB" stroke="black" stroke-width="0.340157" stroke-miterlimit="22.9256" stroke-linejoin="bevel"/>
<path fill-rule="evenodd" clip-rule="evenodd" d="M287.816 149.607C300.074 168.903 296.824 188.772 278.064 209.214C276.967 197.277 274.815 188.167 271.609 181.883C282.805 175.413 288.207 164.654 287.816 149.607Z" fill="#005CBB" stroke="black" stroke-width="0.340157" stroke-miterlimit="22.9256" stroke-linejoin="bevel"/>
<path fill-rule="evenodd" clip-rule="evenodd" d="M313.43 175.36C305.192 157.713 303.315 140.819 307.799 124.68C311.112 129.366 313.241 134.906 314.186 141.298C314.186 141.298 316.567 141.298 321.328 141.298C322.358 144.089 322.839 147.271 322.77 150.844C317.78 152.812 315.285 153.796 315.285 153.796C315.628 161.071 315.01 168.259 313.43 175.36Z" fill="#005CBB" stroke="black" stroke-width="0.340157" stroke-miterlimit="22.9256" stroke-linejoin="bevel"/>
<path fill-rule="evenodd" clip-rule="evenodd" d="M348.107 210.249C342.455 200 332.155 191.232 317.207 183.944C310.523 183.99 307.181 184.013 307.181 184.013C306.59 188.069 310.138 191.251 317.825 193.559C330.884 200.366 339.012 207.887 342.207 216.12C346.466 227.094 338.835 241.573 330.667 248.84C327.101 251.728 323.667 254.108 320.366 255.981C310.407 262.626 304.731 272.689 303.339 286.169C302.632 293.013 304.193 297.86 304.015 304.193C303.762 313.152 300.833 321.346 295.231 328.774C303.818 321.425 308.487 313.459 309.24 304.877C308.05 284.979 311.759 271.519 320.364 264.498C325.389 259.979 332.164 254.44 340.691 247.88C352.189 236.215 354.661 223.671 348.107 210.249Z" fill="#005CBB" stroke="black" stroke-width="0.340157" stroke-miterlimit="22.9256" stroke-linejoin="bevel"/>
<path fill-rule="evenodd" clip-rule="evenodd" d="M219.279 347.18C219.279 347.18 222.346 345.852 228.481 343.197C246.159 343.738 257.673 339.769 263.021 331.291C269.483 321.05 267.463 310.481 254.851 307.076C256.656 324.103 253.131 333.076 244.276 333.995C234.705 335.641 227.106 329.094 221.477 314.355C232.91 303.53 244.493 299.684 256.224 302.818C267.651 305.627 272.806 312.671 271.69 323.95C269.358 347.51 237.122 349.717 219.279 347.18Z" fill="#005CBB" stroke="black" stroke-width="0.340157" stroke-miterlimit="22.9256" stroke-linejoin="bevel"/>
<path fill-rule="evenodd" clip-rule="evenodd" d="M200.875 305.702C200.783 325.709 200.737 335.713 200.737 335.713C205.102 329.832 207.162 321.363 206.918 310.303C202.889 307.236 200.875 305.702 200.875 305.702Z" fill="#005CBB" stroke="black" stroke-width="0.340157" stroke-miterlimit="22.9256" stroke-linejoin="bevel"/>
<path fill-rule="evenodd" clip-rule="evenodd" d="M186.658 280.432C186.384 323.008 186.247 344.297 186.247 344.297C189.879 343.162 192.809 341.972 195.037 340.726C194.991 305.612 194.968 288.055 194.968 288.055C192.645 285.142 189.875 282.601 186.658 280.432Z" fill="#005CBB" stroke="black" stroke-width="0.340157" stroke-miterlimit="22.9256" stroke-linejoin="bevel"/>
<path fill-rule="evenodd" clip-rule="evenodd" d="M176.297 278.373C177.519 278.373 179.027 278.373 180.82 278.373C180.774 323.101 180.751 345.465 180.751 345.465C178.977 345.48 177.492 345.492 176.297 345.502" fill="#005CBB"/>
<path d="M176.297 278.373C177.519 278.373 179.027 278.373 180.82 278.373C180.774 323.101 180.751 345.465 180.751 345.465C178.977 345.48 177.492 345.492 176.297 345.502" stroke="black" stroke-width="0.340157" stroke-miterlimit="22.9256" stroke-linejoin="bevel"/>
<path fill-rule="evenodd" clip-rule="evenodd" d="M176.297 217.771C186.3 218.637 195.136 223.193 204.69 228.478C220.193 237.055 232.848 239.163 242.654 234.803C232.177 226.585 221.144 218.161 209.554 209.532C197.067 200.243 185.981 194.95 176.297 193.653" fill="#005CBB"/>
<path d="M176.297 217.771C186.3 218.637 195.136 223.193 204.69 228.478C220.193 237.055 232.848 239.163 242.654 234.803C232.177 226.585 221.144 218.161 209.554 209.532C197.067 200.243 185.981 194.95 176.297 193.653" stroke="black" stroke-width="0.340157" stroke-miterlimit="22.9256" stroke-linejoin="bevel"/>
<path fill-rule="evenodd" clip-rule="evenodd" d="M317.861 220.194C319.697 219.538 321.592 218.96 323.547 218.459C313.567 210.493 308.577 206.51 308.577 206.51C306.872 206.975 305.212 207.488 303.596 208.051" fill="#005CBB"/>
<path d="M317.861 220.194C319.697 219.538 321.592 218.96 323.547 218.459C313.567 210.493 308.577 206.51 308.577 206.51C306.872 206.975 305.212 207.488 303.596 208.051" stroke="black" stroke-width="0.340157" stroke-miterlimit="22.9256" stroke-linejoin="bevel"/>
<path fill-rule="evenodd" clip-rule="evenodd" d="M300.368 209.267C298.622 209.976 296.932 210.747 295.299 211.581Z" fill="#005CBB"/>
<path d="M300.368 209.267C298.622 209.976 296.932 210.747 295.299 211.581" stroke="black" stroke-width="0.340157" stroke-miterlimit="22.9256" stroke-linejoin="bevel"/>
<path fill-rule="evenodd" clip-rule="evenodd" d="M292.797 212.933C291.088 213.909 289.445 214.959 287.87 216.083Z" fill="#005CBB"/>
<path d="M292.797 212.933C291.088 213.909 289.445 214.959 287.87 216.083" stroke="black" stroke-width="0.340157" stroke-miterlimit="22.9256" stroke-linejoin="bevel"/>
<path fill-rule="evenodd" clip-rule="evenodd" d="M285.12 218.173C283.617 219.39 282.182 220.682 280.813 222.048Z" fill="#005CBB"/>
<path d="M285.12 218.173C283.617 219.39 282.182 220.682 280.813 222.048" stroke="black" stroke-width="0.340157" stroke-miterlimit="22.9256" stroke-linejoin="bevel"/>
<path fill-rule="evenodd" clip-rule="evenodd" d="M278.328 224.695C277.278 225.887 276.274 227.129 275.314 228.42Z" fill="#005CBB"/>
<path d="M278.328 224.695C277.278 225.887 276.274 227.129 275.314 228.42" stroke="black" stroke-width="0.340157" stroke-miterlimit="22.9256" stroke-linejoin="bevel"/>
<path fill-rule="evenodd" clip-rule="evenodd" d="M273.594 230.859C272.55 232.42 271.565 234.048 270.64 235.741Z" fill="#005CBB"/>
<path d="M273.594 230.859C272.55 232.42 271.565 234.048 270.64 235.741" stroke="black" stroke-width="0.340157" stroke-miterlimit="22.9256" stroke-linejoin="bevel"/>
<path fill-rule="evenodd" clip-rule="evenodd" d="M269.369 238.186C268.637 239.666 267.948 241.193 267.301 242.766Z" fill="#005CBB"/>
<path d="M269.369 238.186C268.637 239.666 267.948 241.193 267.301 242.766" stroke="black" stroke-width="0.340157" stroke-miterlimit="22.9256" stroke-linejoin="bevel"/>
<path fill-rule="evenodd" clip-rule="evenodd" d="M266.276 245.394C265.685 246.991 265.136 248.634 264.627 250.323C275.798 257.282 281.383 260.761 281.383 260.761C281.907 259.132 282.465 257.547 283.056 256.007" fill="#005CBB"/>
<path d="M266.276 245.394C265.685 246.991 265.136 248.634 264.627 250.323C275.798 257.282 281.383 260.761 281.383 260.761C281.907 259.132 282.465 257.547 283.056 256.007" stroke="black" stroke-width="0.340157" stroke-miterlimit="22.9256" stroke-linejoin="bevel"/>
<path fill-rule="evenodd" clip-rule="evenodd" d="M284.111 253.393C284.726 251.941 285.374 250.531 286.053 249.164Z" fill="#005CBB"/>
<path d="M284.111 253.393C284.726 251.941 285.374 250.531 286.053 249.164" stroke="black" stroke-width="0.340157" stroke-miterlimit="22.9256" stroke-linejoin="bevel"/>
<path fill-rule="evenodd" clip-rule="evenodd" d="M287.379 246.624C288.315 244.916 289.307 243.278 290.352 241.713Z" fill="#005CBB"/>
<path d="M287.379 246.624C288.315 244.916 289.307 243.278 290.352 241.713" stroke="black" stroke-width="0.340157" stroke-miterlimit="22.9256" stroke-linejoin="bevel"/>
<path fill-rule="evenodd" clip-rule="evenodd" d="M292.019 239.34C292.907 238.14 293.83 236.985 294.788 235.878Z" fill="#005CBB"/>
<path d="M292.019 239.34C292.907 238.14 293.83 236.985 294.788 235.878" stroke="black" stroke-width="0.340157" stroke-miterlimit="22.9256" stroke-linejoin="bevel"/>
<path fill-rule="evenodd" clip-rule="evenodd" d="M296.952 233.516C298.199 232.232 299.501 231.018 300.857 229.876Z" fill="#005CBB"/>
<path d="M296.952 233.516C298.199 232.232 299.501 231.018 300.857 229.876" stroke="black" stroke-width="0.340157" stroke-miterlimit="22.9256" stroke-linejoin="bevel"/>
<path fill-rule="evenodd" clip-rule="evenodd" d="M302.851 228.275C304.199 227.246 305.596 226.282 307.043 225.384Z" fill="#005CBB"/>
<path d="M302.851 228.275C304.199 227.246 305.596 226.282 307.043 225.384" stroke="black" stroke-width="0.340157" stroke-miterlimit="22.9256" stroke-linejoin="bevel"/>
<path fill-rule="evenodd" clip-rule="evenodd" d="M309.766 223.8C311.269 222.983 312.822 222.231 314.424 221.543Z" fill="#005CBB"/>
<path d="M309.766 223.8C311.269 222.983 312.822 222.231 314.424 221.543" stroke="black" stroke-width="0.340157" stroke-miterlimit="22.9256" stroke-linejoin="bevel"/>
<path fill-rule="evenodd" clip-rule="evenodd" d="M283.056 256.007C273.923 250.23 268.329 246.692 266.276 245.394Z" fill="#005CBB"/>
<path d="M283.056 256.007C273.923 250.23 268.329 246.692 266.276 245.394" stroke="black" stroke-width="0.340157" stroke-miterlimit="22.9256" stroke-linejoin="bevel"/>
<path fill-rule="evenodd" clip-rule="evenodd" d="M284.111 253.393C275.273 247.806 269.669 244.263 267.301 242.766Z" fill="#005CBB"/>
<path d="M284.111 253.393C275.273 247.806 269.669 244.263 267.301 242.766" stroke="black" stroke-width="0.340157" stroke-miterlimit="22.9256" stroke-linejoin="bevel"/>
<path fill-rule="evenodd" clip-rule="evenodd" d="M286.053 249.164C276.85 243.108 271.288 239.449 269.369 238.186Z" fill="#005CBB"/>
<path d="M286.053 249.164C276.85 243.108 271.288 239.449 269.369 238.186" stroke="black" stroke-width="0.340157" stroke-miterlimit="22.9256" stroke-linejoin="bevel"/>
<path fill-rule="evenodd" clip-rule="evenodd" d="M290.352 241.713C281.811 236.18 276.224 232.562 273.594 230.859Z" fill="#005CBB"/>
<path d="M290.352 241.713C281.811 236.18 276.224 232.562 273.594 230.859" stroke="black" stroke-width="0.340157" stroke-miterlimit="22.9256" stroke-linejoin="bevel"/>
<path fill-rule="evenodd" clip-rule="evenodd" d="M287.379 246.624C278.735 241.004 273.156 237.377 270.64 235.741Z" fill="#005CBB"/>
<path d="M287.379 246.624C278.735 241.004 273.156 237.377 270.64 235.741" stroke="black" stroke-width="0.340157" stroke-miterlimit="22.9256" stroke-linejoin="bevel"/>
<path fill-rule="evenodd" clip-rule="evenodd" d="M294.788 235.878C285.748 229.736 280.261 226.008 278.328 224.695Z" fill="#005CBB"/>
<path d="M294.788 235.878C285.748 229.736 280.261 226.008 278.328 224.695" stroke="black" stroke-width="0.340157" stroke-miterlimit="22.9256" stroke-linejoin="bevel"/>
<path fill-rule="evenodd" clip-rule="evenodd" d="M292.019 239.34C283.577 233.822 278.009 230.181 275.314 228.42Z" fill="#005CBB"/>
<path d="M292.019 239.34C283.577 233.822 278.009 230.181 275.314 228.42" stroke="black" stroke-width="0.340157" stroke-miterlimit="22.9256" stroke-linejoin="bevel"/>
<path fill-rule="evenodd" clip-rule="evenodd" d="M300.857 229.876C293.123 224.126 287.877 220.225 285.119 218.174Z" fill="#005CBB"/>
<path d="M300.857 229.876C293.123 224.126 287.877 220.225 285.119 218.174" stroke="black" stroke-width="0.340157" stroke-miterlimit="22.9256" stroke-linejoin="bevel"/>
<path fill-rule="evenodd" clip-rule="evenodd" d="M296.952 233.516C288.763 227.698 283.384 223.875 280.813 222.048Z" fill="#005CBB"/>
<path d="M296.952 233.516C288.763 227.698 283.384 223.875 280.813 222.048" stroke="black" stroke-width="0.340157" stroke-miterlimit="22.9256" stroke-linejoin="bevel"/>
<path fill-rule="evenodd" clip-rule="evenodd" d="M307.043 225.384C300.21 219.412 295.462 215.261 292.797 212.933Z" fill="#005CBB"/>
<path d="M307.043 225.384C300.21 219.412 295.462 215.261 292.797 212.933" stroke="black" stroke-width="0.340157" stroke-miterlimit="22.9256" stroke-linejoin="bevel"/>
<path fill-rule="evenodd" clip-rule="evenodd" d="M302.851 228.275C294.955 221.849 289.96 217.784 287.87 216.083Z" fill="#005CBB"/>
<path d="M302.851 228.275C294.955 221.849 289.96 217.784 287.87 216.083" stroke="black" stroke-width="0.340157" stroke-miterlimit="22.9256" stroke-linejoin="bevel"/>
<path fill-rule="evenodd" clip-rule="evenodd" d="M314.424 221.543C307.147 215.188 302.461 211.096 300.368 209.267Z" fill="#005CBB"/>
<path d="M314.424 221.543C307.147 215.188 302.461 211.096 300.368 209.267" stroke="black" stroke-width="0.340157" stroke-miterlimit="22.9256" stroke-linejoin="bevel"/>
<path fill-rule="evenodd" clip-rule="evenodd" d="M309.766 223.8C301.917 217.171 297.094 213.098 295.299 211.581Z" fill="#005CBB"/>
<path d="M309.766 223.8C301.917 217.171 297.094 213.098 295.299 211.581" stroke="black" stroke-width="0.340157" stroke-miterlimit="22.9256" stroke-linejoin="bevel"/>
<path fill-rule="evenodd" clip-rule="evenodd" d="M317.861 220.194C310.543 213.965 305.788 209.917 303.597 208.051Z" fill="#005CBB"/>
<path d="M317.861 220.194C310.543 213.965 305.788 209.917 303.597 208.051" stroke="black" stroke-width="0.340157" stroke-miterlimit="22.9256" stroke-linejoin="bevel"/>
</svg>
